<svg xmlns="http://www.w3.org/2000/svg" xmlns:xlink="http://www.w3.org/1999/xlink" width="615.1" height="179" viewBox="0 0 615.1 179"><defs><linearGradient id="a" x1="0.889" y1="0.088" x2="0.321" y2="0.67" gradientUnits="objectBoundingBox"><stop offset="0" stop-color="#b59bf3"/><stop offset="1" stop-color="#3d59e6"/></linearGradient><linearGradient id="b" x1="0.23" y1="0.206" x2="0.884" y2="0.813" gradientUnits="objectBoundingBox"><stop offset="0" stop-color="#57a5ed"/><stop offset="1" stop-color="#86cbf4"/></linearGradient><clipPath id="c"><rect width="137.864" height="107.361" fill="none"/></clipPath><clipPath id="d"><rect width="106.912" height="106.912" fill="url(#a)"/></clipPath><linearGradient id="e" x1="0.889" y1="0.088" x2="0.321" y2="0.67" gradientUnits="objectBoundingBox"><stop offset="0" stop-color="#9878f0"/><stop offset="1" stop-color="#2f4dcb"/></linearGradient><clipPath id="f"><rect width="75.384" height="75.384" fill="url(#b)"/></clipPath><linearGradient id="g" x1="0.23" y1="0.206" x2="0.884" y2="0.813" gradientUnits="objectBoundingBox"><stop offset="0" stop-color="#8170ee"/><stop offset="1" stop-color="#5562ea"/></linearGradient><clipPath id="h"><rect width="26.71" height="22.036" fill="none"/></clipPath></defs><g transform="translate(-93 -152)"><path d="M7.2,0A2.6,2.6,0,0,1,5.3-.8a2.6,2.6,0,0,1-.8-1.9V-49.3a2.6,2.6,0,0,1,.8-1.9A2.6,2.6,0,0,1,7.2-52H24.7a2.6,2.6,0,0,1,1.9.8,2.6,2.6,0,0,1,.8,1.9v3.5a26.989,26.989,0,0,1,7.15-4.5A21.146,21.146,0,0,1,43-52h4.8a2.6,2.6,0,0,1,1.9.8,2.6,2.6,0,0,1,.8,1.9v15.6a2.6,2.6,0,0,1-.8,1.9,2.6,2.6,0,0,1-1.9.8H34.9a6.112,6.112,0,0,0-4.5,1.5A6.112,6.112,0,0,0,28.9-25V-2.7a2.6,2.6,0,0,1-.8,1.9,2.6,2.6,0,0,1-1.9.8Zm74,1Q68.1,1,60.35-5.45T52.6-25.9v-.7a29.009,29.009,0,0,1,3.75-14.5,22.5,22.5,0,0,1,9.9-8.9A34.429,34.429,0,0,1,81.1-53q9.8,0,16.1,3.75a23.612,23.612,0,0,1,9.35,9.9A30.072,30.072,0,0,1,109.6-25.8v3a2.6,2.6,0,0,1-.8,1.9,2.6,2.6,0,0,1-1.9.8H77.1v.5a13.588,13.588,0,0,0,.35,3.35A3.658,3.658,0,0,0,78.7-14.2a3.636,3.636,0,0,0,2.3.7,2.566,2.566,0,0,0,1.05-.2,3.053,3.053,0,0,0,.9-.65l.95-.95a5.253,5.253,0,0,1,1.5-1.15,4.926,4.926,0,0,1,1.8-.25h18.9a2.338,2.338,0,0,1,1.65.6,1.808,1.808,0,0,1,.55,1.6,10.076,10.076,0,0,1-1.75,4.55A19.783,19.783,0,0,1,101.6-4.8,28.221,28.221,0,0,1,93.2-.65,39.1,39.1,0,0,1,81.2,1ZM77.1-32.6h8v-.1a12,12,0,0,0-.45-3.6,3.9,3.9,0,0,0-1.35-2.05A6.822,6.822,0,0,0,81.1-39a6.822,6.822,0,0,0-2.2.65,3.9,3.9,0,0,0-1.35,2.05,12,12,0,0,0-.45,3.6ZM139,1A44.877,44.877,0,0,1,126.75-.45a26.815,26.815,0,0,1-8.2-3.7,16.706,16.706,0,0,1-4.65-4.7,9.658,9.658,0,0,1-1.6-4.45,2.35,2.35,0,0,1,.65-1.9,2.329,2.329,0,0,1,1.75-.8h17.8a4.572,4.572,0,0,1,2.35.85q1.05.75,2.2,1.45a4.994,4.994,0,0,0,2.65.7,3.254,3.254,0,0,0,1.55-.4,1.218,1.218,0,0,0,.75-1.1,2.519,2.519,0,0,0-.55-1.6,6.326,6.326,0,0,0-2.7-1.45,52.494,52.494,0,0,0-7.15-1.65,39.828,39.828,0,0,1-8.8-2.8,17.83,17.83,0,0,1-6.85-5.3,13.57,13.57,0,0,1-2.65-8.6,13.535,13.535,0,0,1,2.9-8.2,20.863,20.863,0,0,1,8.55-6.4A34.181,34.181,0,0,1,138.6-53a39.35,39.35,0,0,1,11,1.4,30.193,30.193,0,0,1,8.15,3.6,19.264,19.264,0,0,1,5.15,4.7,8.82,8.82,0,0,1,1.9,4.6,2.433,2.433,0,0,1-.6,1.9,2.084,2.084,0,0,1-1.6.8H145.8a4.333,4.333,0,0,1-2.5-.75l-2.2-1.5a4.5,4.5,0,0,0-2.6-.75,2.34,2.34,0,0,0-1.35.45,1.351,1.351,0,0,0-.65,1.15,2.458,2.458,0,0,0,.6,1.55,6.035,6.035,0,0,0,2.9,1.4A69.852,69.852,0,0,0,147.5-33,29.181,29.181,0,0,1,159-29.3a16.776,16.776,0,0,1,6.15,6.2A14.687,14.687,0,0,1,167-16.2,13.921,13.921,0,0,1,163.75-7a20.183,20.183,0,0,1-9.5,5.95A49.355,49.355,0,0,1,139,1Zm60.2,0a42.178,42.178,0,0,1-15.5-2.5A20.189,20.189,0,0,1,174.05-9a24.741,24.741,0,0,1-3.85-12.3q-.1-2.3-.1-4.75t.1-4.65a23.2,23.2,0,0,1,4.1-12.35,21.866,21.866,0,0,1,9.9-7.45,40.614,40.614,0,0,1,15-2.5,40.614,40.614,0,0,1,15,2.5,21.866,21.866,0,0,1,9.9,7.45,23.2,23.2,0,0,1,4.1,12.35q.2,2.2.2,4.65t-.2,4.75A24.74,24.74,0,0,1,224.35-9a20.189,20.189,0,0,1-9.65,7.5A42.178,42.178,0,0,1,199.2,1Zm0-16q2.9,0,3.6-1.65a16.494,16.494,0,0,0,.9-5.15q.1-1.5.1-4.2t-.1-4.2a16.977,16.977,0,0,0-.9-5.05Q202.1-37,199.2-37q-2.8,0-3.55,1.75a15.765,15.765,0,0,0-.95,5.05q-.1,1.5-.1,4.2t.1,4.2a15.339,15.339,0,0,0,.95,5.15Q196.4-15,199.2-15ZM236.5,0a2.6,2.6,0,0,1-1.9-.8,2.6,2.6,0,0,1-.8-1.9V-68.3a2.6,2.6,0,0,1,.8-1.9,2.6,2.6,0,0,1,1.9-.8h17.9a2.6,2.6,0,0,1,1.9.8,2.6,2.6,0,0,1,.8,1.9V-2.7a2.6,2.6,0,0,1-.8,1.9,2.6,2.6,0,0,1-1.9.8Zm46.6,0a2.617,2.617,0,0,1-2.15-.8,11.708,11.708,0,0,1-1.15-1.7L260.6-48.9a2.216,2.216,0,0,1-.1-.7,2.314,2.314,0,0,1,.7-1.7,2.314,2.314,0,0,1,1.7-.7h16.9a2.941,2.941,0,0,1,2.25.8,4.894,4.894,0,0,1,1.05,1.6l8,23.3,8-23.3a4.894,4.894,0,0,1,1.05-1.6,2.941,2.941,0,0,1,2.25-.8h16.9a2.314,2.314,0,0,1,1.7.7,2.314,2.314,0,0,1,.7,1.7,2.216,2.216,0,0,1-.1.7L302.4-2.5a6.731,6.731,0,0,1-1.1,1.7,2.775,2.775,0,0,1-2.2.8Zm44.7,0a2.6,2.6,0,0,1-1.9-.8,2.6,2.6,0,0,1-.8-1.9V-49.3a2.6,2.6,0,0,1,.8-1.9,2.6,2.6,0,0,1,1.9-.8h17.9a2.6,2.6,0,0,1,1.9.8,2.6,2.6,0,0,1,.8,1.9V-2.7a2.6,2.6,0,0,1-.8,1.9,2.6,2.6,0,0,1-1.9.8Zm.5-57.5a2.6,2.6,0,0,1-1.9-.8,2.6,2.6,0,0,1-.8-1.9V-72.3a2.6,2.6,0,0,1,.8-1.9,2.6,2.6,0,0,1,1.9-.8h16.9a2.6,2.6,0,0,1,1.9.8,2.6,2.6,0,0,1,.8,1.9v12.1a2.6,2.6,0,0,1-.8,1.9,2.6,2.6,0,0,1-1.9.8ZM372,1a23.181,23.181,0,0,1-10.1-2.1,16.828,16.828,0,0,1-6.85-5.7,14.066,14.066,0,0,1-2.45-8.1,13.208,13.208,0,0,1,5.95-11.45q5.95-4.15,15.95-5.85l10.6-1.7V-34a11.687,11.687,0,0,0-.45-3.8Q384.2-39,382.1-39a4.088,4.088,0,0,0-2.25.55A11.664,11.664,0,0,0,378-36.9a3.793,3.793,0,0,1-2.8,1.1h-17a2.338,2.338,0,0,1-1.65-.6A1.808,1.808,0,0,1,356-38a10.2,10.2,0,0,1,1.6-4.45,17.734,17.734,0,0,1,4.65-4.95,27.006,27.006,0,0,1,8.1-4A39.132,39.132,0,0,1,382.3-53a43.166,43.166,0,0,1,11.85,1.45,22.61,22.61,0,0,1,8.35,4.2,17.113,17.113,0,0,1,4.95,6.8,24.067,24.067,0,0,1,1.65,9.15V-2.7a2.6,2.6,0,0,1-.8,1.9,2.6,2.6,0,0,1-1.9.8H388.9A2.6,2.6,0,0,1,387-.8a2.6,2.6,0,0,1-.8-1.9V-5.5a13.471,13.471,0,0,1-3.55,3.45A17.5,17.5,0,0,1,377.8.2,20.326,20.326,0,0,1,372,1Zm6.9-14.8a7.037,7.037,0,0,0,3.45-.8,5.313,5.313,0,0,0,2.25-2.55,10.455,10.455,0,0,0,.8-4.35v-.1l-5.9,1.3a6.837,6.837,0,0,0-3.5,1.6,3.111,3.111,0,0,0-.9,2.1,2.34,2.34,0,0,0,.45,1.35,3.181,3.181,0,0,0,1.3,1.05A4.784,4.784,0,0,0,378.9-13.8Z" transform="translate(299 276)" fill="#121318"/><g transform="translate(-137 23.249)"><g transform="translate(230 128.751)"><rect width="179" height="179" fill="none"/><g transform="translate(20.855 35.53)"><g clip-path="url(#c)"><g transform="translate(30.952)" style="isolation:isolate"><g clip-path="url(#d)"><path d="M99.743,104.739,84.654,89.651a7.415,7.415,0,0,1,0-10.487L161.646,2.171a7.415,7.415,0,0,1,10.487,0L187.222,17.26a7.415,7.415,0,0,1,0,10.487L110.23,104.739a7.415,7.415,0,0,1-10.487,0" transform="translate(-82.482 0)" fill="url(#e)"/></g></g><g transform="translate(0 31.977)" style="isolation:isolate"><g clip-path="url(#f)"><path d="M73.212,143.336,58.124,158.425a7.415,7.415,0,0,1-10.487,0L2.172,112.96a7.415,7.415,0,0,1,0-10.487L17.261,87.385a7.414,7.414,0,0,1,10.487,0l45.465,45.464a7.415,7.415,0,0,1,0,10.487" transform="translate(0 -85.212)" fill="url(#g)"/></g></g><g transform="translate(39.875 59.555)" style="isolation:isolate"><g transform="translate(0 0)"><g clip-path="url(#h)"><path d="M108.026,175.868l1.592,1.568a13.619,13.619,0,0,0,19.056,0l5.748-4.415-13.986-13.145-12.41,12.576a2.39,2.39,0,0,0,0,3.415" transform="translate(-107.308 -159.287)" fill="#3136b5"/></g></g></g><path d="M105.987,173.378l.671.671a13.364,13.364,0,0,0,18.9,0l6.023-6.1L119.24,156.686l-13.253,13.253a2.432,2.432,0,0,0,0,3.439" transform="translate(-65.769 -97.888)" fill="#314ecb"/></g></g></g></g></g></svg>