<svg xmlns="http://www.w3.org/2000/svg" xmlns:xlink="http://www.w3.org/1999/xlink" width="500" height="500" viewBox="0 0 500 500"><defs><linearGradient id="a" x1="0.889" y1="0.088" x2="0.335" y2="0.611" gradientUnits="objectBoundingBox"><stop offset="0" stop-color="#b59bf3"/><stop offset="0.356" stop-color="#314eca"/><stop offset="1" stop-color="#3d59e6"/></linearGradient><linearGradient id="b" x1="0.23" y1="0.206" x2="0.884" y2="0.813" gradientUnits="objectBoundingBox"><stop offset="0" stop-color="#57a5ed"/><stop offset="1" stop-color="#86cbf4"/></linearGradient><clipPath id="c"><rect width="383.409" height="298.577" fill="none"/></clipPath><clipPath id="d"><rect width="297.329" height="297.328" fill="url(#a)"/></clipPath><linearGradient id="e" x1="0.889" y1="0.088" x2="0.5" y2="0.469" gradientUnits="objectBoundingBox"><stop offset="0" stop-color="#9878f0"/><stop offset="1" stop-color="#2f4dcb"/></linearGradient><clipPath id="f"><rect width="209.648" height="209.648" fill="url(#b)"/></clipPath><linearGradient id="g" x1="0.23" y1="0.206" x2="0.884" y2="0.813" gradientUnits="objectBoundingBox"><stop offset="0" stop-color="#8170ee"/><stop offset="1" stop-color="#5562ea"/></linearGradient><clipPath id="h"><rect width="74.283" height="61.284" fill="none"/></clipPath></defs><g transform="translate(-230 -128)"><g transform="translate(-8 6)"><rect width="500" height="500" transform="translate(238 122)" fill="none"/><g transform="translate(296 223)"><g clip-path="url(#c)"><g transform="translate(86.08)" style="isolation:isolate"><g clip-path="url(#d)"><path d="M130.484,291.288,88.522,249.326a20.623,20.623,0,0,1,0-29.165L302.643,6.039a20.623,20.623,0,0,1,29.165,0L373.769,48a20.623,20.623,0,0,1,0,29.165l-214.12,214.12a20.623,20.623,0,0,1-29.165,0" transform="translate(-82.482 0)" fill="url(#e)"/></g></g><g transform="translate(0 88.929)" style="isolation:isolate"><g clip-path="url(#f)"><path d="M203.608,246.858,161.646,288.82a20.623,20.623,0,0,1-29.165,0L6.04,162.38a20.623,20.623,0,0,1,0-29.165L48,91.253a20.62,20.62,0,0,1,29.164,0l126.441,126.44a20.623,20.623,0,0,1,0,29.165" transform="translate(0 -85.212)" fill="url(#g)"/></g></g><g transform="translate(110.895 165.625)" style="isolation:isolate"><g transform="translate(0 0)"><g clip-path="url(#h)"><path d="M109.305,204.349l4.427,4.361a37.875,37.875,0,0,0,53,0l15.984-12.278-38.9-36.557-34.512,34.974a6.647,6.647,0,0,0,0,9.5" transform="translate(-107.308 -158.238)" fill="#3136b5"/></g></g></g><path d="M107.255,203.107l1.866,1.866a37.165,37.165,0,0,0,52.559,0l16.75-16.966-34.316-31.321-36.859,36.859a6.762,6.762,0,0,0,0,9.563" transform="translate(4.592 6.834)" fill="#314ecb"/></g></g></g></g></svg>